<?xml version="1.0" encoding="utf-8"?>
<svg xmlns="http://www.w3.org/2000/svg" fill="none" height="40" viewBox="0 0 146 40" width="146">
<g clip-path="url(#clip0_27199_4441)">
<path d="M0 8.16748H6.88102C10.6004 8.16748 12.5804 9.77351 12.5804 12.7014C12.5804 14.8351 11.3247 15.9391 10.1168 16.419C11.9259 16.9953 13.1331 18.4828 13.1331 20.5951C13.1331 23.6187 10.8895 25.3947 7.31478 25.3947H0V8.16748ZM6.59114 15.2929C8.57189 15.2929 9.65594 14.5252 9.65594 13.0149C9.65594 11.5045 8.57118 10.759 6.59114 10.759H2.96865V15.2929H6.59114ZM2.96865 22.8025H7.14455C9.09896 22.8025 10.1609 21.7948 10.1609 20.3331C10.1609 18.8713 9.09825 17.8851 7.14455 17.8851H2.96865V22.8025Z" fill="#32951C"/>
<path d="M17.555 25.399H14.4639V8.16748H17.555V25.399Z" fill="#32951C"/>
<path d="M27.0486 7.90771C31.7338 7.90771 35.1155 11.5554 35.1155 16.7877C35.1155 22.02 31.7345 25.6676 27.0486 25.6676C22.3627 25.6676 18.9824 22.02 18.9824 16.7877C18.9824 11.5554 22.3635 7.90771 27.0486 7.90771ZM27.0486 10.6178C24.1284 10.6178 22.0736 13.0393 22.0736 16.7834C22.0736 20.5275 24.1241 22.949 27.0486 22.949C29.9731 22.949 32.0237 20.5275 32.0237 16.7834C32.0237 13.0393 29.9731 10.6178 27.0486 10.6178Z" fill="#32951C"/>
<path d="M39.3181 24.08V29.7179H36.4199V12.8049H39.3181V14.1488C40.1172 13.2148 41.3202 12.5649 42.9626 12.5649C46.511 12.5649 48.5395 15.5406 48.5395 19.1148C48.5395 22.6889 46.511 25.6646 42.9626 25.6646C41.3202 25.6646 40.1129 25.019 39.3181 24.0807V24.08ZM39.2433 19.4982C39.2433 21.8241 40.5958 23.1459 42.3829 23.1459C44.4818 23.1459 45.6193 21.5142 45.6193 19.114C45.6193 16.7139 44.4861 15.0822 42.3829 15.0822C40.5958 15.0822 39.2433 16.3783 39.2433 18.752V19.4982Z" fill="#32951C"/>
<path d="M50.0898 15.2517H48.3291V12.8038H50.0898V9.11182H52.9395V12.8073H55.5962V15.2553H52.9395V21.783C52.9395 22.9084 53.594 23.0305 54.6304 23.0305C55.1133 23.0305 55.3811 23.0084 55.8113 22.9563V25.3778C55.2799 25.4742 54.5556 25.5435 53.8091 25.5435C51.3939 25.5435 50.0898 24.7973 50.0898 22.2315V15.2496V15.2517Z" fill="#32951C"/>
<path d="M56.9707 8.16748H59.9657V11.1175H56.9707V8.16748ZM59.9173 25.3947H57.0191V12.8013H59.9173V25.3983V25.394V25.3947Z" fill="#32951C"/>
<path d="M64.8933 25.4018H61.9951V12.8049H64.8933V14.1488C65.5913 13.3112 66.6803 12.5649 68.3712 12.5649C69.8904 12.5649 71.0278 13.2369 71.7258 14.3145C72.4986 13.4983 73.7066 12.5649 75.6603 12.5649C78.2685 12.5649 79.9594 14.3888 79.9594 17.0988V25.4025H77.0613V17.9408C77.0613 16.3783 76.4815 15.2529 74.9359 15.2529C73.7066 15.2529 72.4238 16.2126 72.4238 18.0107V25.4025H69.5257V17.9408C69.5257 16.3783 68.9459 15.2529 67.4004 15.2529C66.171 15.2529 64.8883 16.2126 64.8883 18.0107V25.4025H64.8925L64.8933 25.4018Z" fill="#32951C"/>
<path d="M81.8945 8.16748H84.8888V11.1175H81.8945V8.16748ZM84.8411 25.3947H81.943V12.8013H84.8411V25.3983V25.394V25.3947Z" fill="#32951C"/>
<path d="M96.579 25.404H86.2422V23.2446L93.0527 15.2551H86.3391V12.8071H96.5043V14.9887L89.8868 22.9561H96.5748V25.404H96.579Z" fill="#32951C"/>
<path d="M96.8457 19.1143C96.8457 15.4188 99.3571 12.5645 102.883 12.5645C106.41 12.5645 108.509 15.3223 108.509 18.7779V19.7377H99.6213C99.8407 21.8979 101.141 23.2154 103.002 23.2154C104.425 23.2154 105.562 22.4956 105.949 21.1995L108.434 22.1378C107.542 24.3458 105.536 25.6634 103.002 25.6634C99.3799 25.6634 96.8457 23.0019 96.8457 19.1136V19.1143ZM99.7659 17.5782H105.584C105.562 16.1864 104.693 14.986 102.858 14.986C101.361 14.986 100.201 15.8765 99.7666 17.5782H99.7659Z" fill="#32951C"/>
<path d="M116.912 15.6594C116.547 15.6116 116.263 15.5851 115.849 15.5851C114.014 15.5851 112.613 16.7634 112.613 18.7751V25.3992H109.715V12.8058H112.613V14.6775C113.171 13.5035 114.471 12.7358 116.091 12.7358C116.429 12.7358 116.697 12.758 116.912 12.7837V15.6637V15.6594Z" fill="#32951C"/>
<path d="M118.991 21.2729C119.742 22.4947 121.187 23.311 122.662 23.311C123.892 23.311 125.029 22.8789 125.029 21.7485C125.029 20.618 123.966 20.5488 121.964 20.1424C119.962 19.7325 117.665 19.2305 117.665 16.5426C117.665 14.2389 119.694 12.5586 122.614 12.5586C124.835 12.5586 126.816 13.5405 127.734 14.9323L125.78 16.6819C125.056 15.5564 123.848 14.9059 122.448 14.9059C121.267 14.9059 120.494 15.4336 120.494 16.272C120.494 17.1839 121.412 17.3496 123.006 17.6902C125.153 18.1437 127.858 18.6021 127.858 21.4821C127.858 24.0258 125.518 25.6582 122.642 25.6582C120.301 25.6582 117.956 24.7242 116.823 22.9967L118.997 21.2686L118.993 21.2729H118.991Z" fill="#32951C"/>
<path d="M127.597 10.272C127.597 8.76667 128.778 7.63623 130.241 7.63623C131.703 7.63623 132.884 8.76667 132.884 10.272C132.884 11.7774 131.703 12.8899 130.241 12.8899C128.778 12.8899 127.597 11.7688 127.597 10.272ZM132.194 10.272C132.194 9.08945 131.338 8.25179 130.241 8.25179C129.143 8.25179 128.286 9.08945 128.286 10.272C128.286 11.4546 129.142 12.2751 130.241 12.2751C131.339 12.2751 132.194 11.4374 132.194 10.272ZM129.274 9.01089H130.27C130.951 9.01089 131.276 9.29439 131.276 9.70929C131.276 10.0628 131.043 10.2242 130.828 10.2941C131.053 10.3463 131.193 10.5077 131.193 10.809V10.9925C131.193 11.2368 131.254 11.3853 131.364 11.4767V11.4853H130.683C130.6 11.4024 130.543 11.2539 130.543 11.0183V10.8262C130.543 10.6255 130.441 10.5512 130.226 10.5512H129.932V11.481H129.269V9.01089H129.273H129.274ZM130.604 9.78784C130.604 9.61789 130.473 9.53505 130.249 9.53505H129.933V10.0721H130.227C130.473 10.0721 130.604 9.98065 130.604 9.78856V9.78784Z" fill="#32951C"/>
<path d="M139.413 15.8597C139.429 15.799 139.518 15.8126 139.516 15.8754C139.199 21.7947 142.318 32.4263 139.314 37.0059C139.293 37.0381 139.318 37.0802 139.356 37.0773C140.485 36.9974 141.486 36.8153 142.637 36.3061C146.469 34.6101 146.931 27.5547 144.508 21.0777C142.887 16.7438 140.959 13.0811 140.431 10.7095C140.242 9.90544 138.195 12.8419 136.272 16.7123C134.441 20.3986 132.776 24.9346 130.845 27.816C129.291 30.3726 127.442 32.5499 125.527 34.2616C125.502 34.2837 125.509 34.3244 125.539 34.3387C128.288 35.607 130.796 36.4211 133.219 36.8395C141.884 37.9728 137.358 23.5685 139.413 15.8604V15.8597Z" fill="#32951C"/>
<path d="M142.172 37.2625C134.358 38.9186 127.725 36.8226 118.868 31.4033C111.595 26.9522 101.834 30.3071 102.663 30.6756C106.574 32.3595 108.844 35.7236 110.436 36.9012C112.203 38.208 113.622 38.8693 116.242 38.7036C117.586 38.6186 120.26 38.68 122.423 39.0057C122.488 39.0157 122.514 38.9264 122.455 38.8986C118.543 37.119 111.817 31.9353 107.067 31.0705C107.062 31.0691 107.057 31.0676 107.054 31.0669C107.036 31.0633 106.99 31.0569 106.997 31.0219C107 31.0034 107.018 30.9991 107.041 30.9991C111.732 31.3768 115.923 33.9134 119.591 36.0964C123.017 38.1345 126.876 39.3435 130.852 39.5713C134.905 39.8026 138.845 39.4998 142.199 37.3261C142.232 37.3047 142.21 37.254 142.172 37.2618L142.172 37.2625Z" fill="#103608"/>
</g>
<defs>
<clipPath id="clip0_27199_4441">
<rect fill="white" height="32" transform="translate(0 7.63623)" width="146"/>
</clipPath>
</defs>
</svg>